<svg width="278" height="72" viewBox="0 0 278 72" fill="none" xmlns="http://www.w3.org/2000/svg">
    <path d="M136.073 18.8992V26.2904H112.171V33.8986H134.973V41.2898H112.171V54.8073H103.945V18.9353H136.073V18.8992Z" fill="white"/>
    <path d="M152.97 54.8071C150.01 54.8071 147.708 54.091 146.081 52.6399C144.455 51.1512 143.633 49.097 143.633 46.4775V15.1191H151.636V45.0076C151.636 45.8745 151.855 46.5341 152.294 46.9487C152.733 47.3633 153.463 47.5706 154.468 47.5706H156.862V54.8071H152.97Z" fill="white"/>
    <path d="M177.734 54.8075C174.238 54.8075 171.184 54.2723 168.626 53.1841C166.051 52.0601 164.082 50.4901 162.702 48.4385C161.322 46.3511 160.642 43.907 160.642 41.0882V40.3924C160.642 37.5201 161.322 35.0224 162.647 32.9351C164.027 30.8477 165.995 29.2421 168.571 28.136C171.147 27.012 174.201 26.459 177.734 26.459C181.266 26.459 184.265 27.012 186.785 28.136C189.324 29.2599 191.256 30.8477 192.599 32.9351C193.979 35.0224 194.66 37.5023 194.66 40.3924V41.0882C194.66 43.8891 193.961 46.3511 192.599 48.4385C191.256 50.4901 189.324 52.0779 186.785 53.1841C184.246 54.2723 181.229 54.8075 177.734 54.8075ZM177.678 47.6713C180.401 47.6713 182.499 47.1004 183.989 45.9408C185.516 44.7812 186.289 43.1577 186.289 41.0347V40.4459C186.289 38.2516 185.534 36.5567 184.044 35.3792C182.554 34.1839 180.438 33.5952 177.678 33.5952C174.919 33.5952 172.748 34.1839 171.239 35.3792C169.749 36.5389 168.994 38.2159 168.994 40.4459V41.0347C168.994 43.1577 169.749 44.799 171.239 45.9408C172.766 47.1004 174.919 47.6713 177.678 47.6713Z" fill="white"/>
    <path d="M213.534 33.6893V44.4542C213.534 45.4652 213.803 46.2702 214.36 46.8319C214.934 47.3561 215.76 47.6182 216.819 47.6182H223.265V54.8073H215.796C212.672 54.8073 210.194 53.9461 208.381 52.205C206.568 50.4265 205.652 48.0301 205.652 45.0159V33.6893H196.55V26.444H203.857C204.629 26.444 205.15 26.2942 205.437 25.9947C205.724 25.6951 205.868 25.1522 205.868 24.3472V18.8992H213.552V26.444H224.898V33.6893H213.534Z" fill="white"/>
    <path d="M237.195 26.2471V54.8071H229.628V26.2471H237.195ZM233.412 22.9502C232.012 22.9502 230.872 22.5169 229.991 21.6315C229.11 20.7272 228.678 19.5403 228.678 18.0897C228.678 16.6391 229.11 15.4899 229.991 14.6045C230.872 13.7002 231.995 13.2292 233.412 13.2292C234.828 13.2292 235.986 13.6814 236.815 14.6045C237.696 15.4711 238.128 16.6391 238.128 18.0897C238.128 19.5403 237.696 20.7084 236.815 21.6315C235.934 22.4981 234.811 22.9502 233.412 22.9502Z" fill="white"/>
    <path d="M277.816 27.0844V62.3672H270.031V51.4922C267.63 53.212 264.717 54.0633 261.293 54.0633C258.15 54.0633 255.397 53.5074 253.031 52.3782C250.701 51.249 248.9 49.6855 247.612 47.653C246.323 45.5857 245.688 43.2057 245.688 40.4957V39.9745C245.688 37.2818 246.305 34.9018 247.559 32.8693C248.847 30.802 250.666 29.2212 253.031 28.1441C255.397 27.0149 258.15 26.459 261.293 26.459C264.806 26.459 267.824 27.4145 270.366 29.3428L270.578 27.0844H277.816ZM262.034 47.1144C263.711 47.1144 265.247 46.8539 266.642 46.3327C268.071 45.8115 269.201 45.0819 270.013 44.1785V36.2916C269.219 35.3883 268.124 34.676 266.695 34.1896C265.3 33.6684 263.746 33.4078 262.034 33.4078C259.421 33.4078 257.391 33.9811 255.926 35.145C254.461 36.309 253.72 37.9072 253.72 39.9745V40.4957C253.72 42.5977 254.443 44.2307 255.926 45.3772C257.391 46.5412 259.439 47.1144 262.034 47.1144Z" fill="white"/>
    <path fill-rule="evenodd" clip-rule="evenodd" d="M0 9.79803C0 4.39655 4.38013 0 9.7972 0H26.1199C27.2641 0 28.3725 0.197397 29.3916 0.556299C34.3081 2.29698 38.8491 6.51408 44.0695 6.51408C49.2899 6.51408 53.831 2.29698 58.7474 0.556299C59.7665 0.197397 60.8749 0 62.0191 0C67.4362 0 71.8163 4.37861 71.8163 9.79803C71.8163 15.2175 67.4362 19.5961 62.0191 19.5961C60.8749 19.5961 59.7665 19.3987 58.7474 19.0398C53.831 17.2991 49.2899 13.082 44.0695 13.082C38.8491 13.082 34.3081 17.2991 29.3916 19.0398C28.3725 19.3987 27.2641 19.5961 26.1199 19.5961H9.7972C4.38013 19.5961 0 15.2175 0 9.79803ZM0 35.9082C0 30.5067 4.38013 26.1101 9.7972 26.1101C11.2274 26.1101 12.6041 26.4152 13.8377 26.9715C18.1463 28.9275 22.2046 32.6242 26.9423 32.6242C31.68 32.6242 35.7383 28.9096 40.047 26.9715C41.2805 26.4152 42.6393 26.1101 44.0874 26.1101C49.5045 26.1101 53.8846 30.4887 53.8846 35.9082C53.8846 41.3276 49.5045 45.7062 44.0874 45.7062C42.6572 45.7062 41.2805 45.4011 40.047 44.8448C35.7383 42.8888 31.68 39.1921 26.9423 39.1921C22.2046 39.1921 18.1463 42.9068 13.8377 44.8448C12.6041 45.4011 11.2453 45.7062 9.7972 45.7062C4.38013 45.7062 0 41.3276 0 35.9082ZM9.7972 52.2203C4.38013 52.2203 0 56.5989 0 62.0183C0 67.4377 4.38013 71.8163 9.7972 71.8163C15.2143 71.8163 19.5944 67.4377 19.5944 62.0183C19.5944 56.5989 15.2143 52.2203 9.7972 52.2203Z" fill="white"/>
</svg>
